<?xml version="1.0" encoding="UTF-8" standalone="no"?>
<!DOCTYPE svg PUBLIC "-//W3C//DTD SVG 1.1//EN"
 "http://www.w3.org/Graphics/SVG/1.1/DTD/svg11.dtd">
<!-- Generated by graphviz version 2.43.0 (0)
 -->
<!-- Title: G Pages: 1 -->
<svg width="236pt" height="149pt"
 viewBox="0.00 0.00 235.69 149.25" xmlns="http://www.w3.org/2000/svg" xmlns:xlink="http://www.w3.org/1999/xlink">
<g id="graph0" class="graph" transform="scale(1 1) rotate(0) translate(4 145.25)">
<title>G</title>
<polygon fill="white" stroke="transparent" points="-4,4 -4,-145.25 231.69,-145.25 231.69,4 -4,4"/>
<!-- s3 -->
<g id="node1" class="node">
<title>s3</title>
<ellipse fill="none" stroke="black" cx="25.45" cy="-82.8" rx="21.4" ry="21.4"/>
<ellipse fill="none" stroke="black" cx="25.45" cy="-82.8" rx="25.4" ry="25.4"/>
<text text-anchor="middle" x="25.45" y="-79.1" font-family="Times,serif" font-size="14.00">s3</text>
</g>
<!-- s3&#45;&gt;s3 -->
<g id="edge6" class="edge">
<title>s3&#45;&gt;s3</title>
<path fill="none" stroke="black" d="M16.93,-106.93C16.23,-117.34 19.07,-126.25 25.45,-126.25 29.53,-126.25 32.17,-122.59 33.35,-117.23"/>
<polygon fill="black" stroke="black" points="36.86,-117.12 33.97,-106.93 29.88,-116.7 36.86,-117.12"/>
<text text-anchor="middle" x="25.45" y="-130.05" font-family="Times,serif" font-size="14.00">b</text>
</g>
<!-- s2 -->
<g id="node3" class="node">
<title>s2</title>
<ellipse fill="none" stroke="black" cx="117.34" cy="-57.8" rx="21.4" ry="21.4"/>
<text text-anchor="middle" x="117.34" y="-54.1" font-family="Times,serif" font-size="14.00">s2</text>
</g>
<!-- s3&#45;&gt;s2 -->
<g id="edge5" class="edge">
<title>s3&#45;&gt;s2</title>
<path fill="none" stroke="black" d="M50.78,-79.68C59.44,-78.27 69.19,-76.34 77.9,-73.8 81.26,-72.82 84.73,-71.64 88.14,-70.36"/>
<polygon fill="black" stroke="black" points="89.49,-73.59 97.48,-66.63 86.89,-67.09 89.49,-73.59"/>
<text text-anchor="middle" x="73.4" y="-79.6" font-family="Times,serif" font-size="14.00">a</text>
</g>
<!-- s1 -->
<g id="node2" class="node">
<title>s1</title>
<ellipse fill="none" stroke="black" cx="206.24" cy="-34.8" rx="21.4" ry="21.4"/>
<text text-anchor="middle" x="206.24" y="-31.1" font-family="Times,serif" font-size="14.00">s1</text>
</g>
<!-- s1&#45;&gt;s1 -->
<g id="edge2" class="edge">
<title>s1&#45;&gt;s1</title>
<path fill="none" stroke="black" d="M202.2,-55.9C201.76,-65.69 203.1,-74.25 206.24,-74.25 208.2,-74.25 209.46,-70.91 210.03,-66.01"/>
<polygon fill="black" stroke="black" points="213.53,-65.99 210.28,-55.9 206.53,-65.81 213.53,-65.99"/>
<text text-anchor="middle" x="206.24" y="-78.05" font-family="Times,serif" font-size="14.00">b</text>
</g>
<!-- s1&#45;&gt;s1 -->
<g id="edge7" class="edge">
<title>s1&#45;&gt;s1</title>
<path fill="none" stroke="black" d="M199.35,-55.41C196.21,-73.31 198.51,-92.25 206.24,-92.25 212.52,-92.25 215.22,-79.75 214.32,-65.46"/>
<polygon fill="black" stroke="black" points="217.78,-64.93 213.13,-55.41 210.83,-65.76 217.78,-64.93"/>
<text text-anchor="middle" x="206.24" y="-96.05" font-family="Times,serif" font-size="14.00">a</text>
</g>
<!-- s1&#45;&gt;s2 -->
<g id="edge1" class="edge">
<title>s1&#45;&gt;s2</title>
<path fill="none" stroke="black" d="M184.64,-32.99C175.91,-32.8 165.71,-33.33 156.79,-35.8 152.54,-36.98 148.26,-38.73 144.18,-40.75"/>
<polygon fill="black" stroke="black" points="142.18,-37.85 135.14,-45.77 145.58,-43.98 142.18,-37.85"/>
<text text-anchor="middle" x="161.79" y="-39.6" font-family="Times,serif" font-size="14.00">a</text>
</g>
<!-- s2&#45;&gt;s3 -->
<g id="edge3" class="edge">
<title>s2&#45;&gt;s3</title>
<path fill="none" stroke="black" d="M95.71,-56.06C87.26,-55.9 77.48,-56.45 68.9,-58.8 64.46,-60.02 59.99,-61.8 55.71,-63.85"/>
<polygon fill="black" stroke="black" points="53.88,-60.86 46.71,-68.66 57.18,-67.04 53.88,-60.86"/>
<text text-anchor="middle" x="73.4" y="-62.6" font-family="Times,serif" font-size="14.00">a</text>
</g>
<!-- s2&#45;&gt;s1 -->
<g id="edge4" class="edge">
<title>s2&#45;&gt;s1</title>
<path fill="none" stroke="black" d="M138.85,-55.99C147.57,-54.93 157.78,-53.28 166.79,-50.8 170.17,-49.87 173.65,-48.72 177.07,-47.46"/>
<polygon fill="black" stroke="black" points="178.41,-50.69 186.41,-43.74 175.82,-44.19 178.41,-50.69"/>
<text text-anchor="middle" x="161.79" y="-56.6" font-family="Times,serif" font-size="14.00">b</text>
</g>
<!-- s&#45;s1 -->
<g id="node4" class="node">
<title>s&#45;s1</title>
<ellipse fill="black" stroke="black" cx="117.34" cy="-1.8" rx="1.8" ry="1.8"/>
</g>
<!-- s&#45;s1&#45;&gt;s1 -->
<g id="edge8" class="edge">
<title>s&#45;s1&#45;&gt;s1</title>
<path fill="none" stroke="black" d="M119.32,-2.17C124.94,-4.3 153.72,-15.23 176.44,-23.86"/>
<polygon fill="black" stroke="black" points="175.45,-27.23 186.04,-27.51 177.93,-20.68 175.45,-27.23"/>
</g>
<!-- s&#45;s2 -->
<g id="node5" class="node">
<title>s&#45;s2</title>
<ellipse fill="black" stroke="black" cx="25.45" cy="-24.8" rx="1.8" ry="1.8"/>
</g>
<!-- s&#45;s2&#45;&gt;s2 -->
<g id="edge9" class="edge">
<title>s&#45;s2&#45;&gt;s2</title>
<path fill="none" stroke="black" d="M27.46,-25.17C33.33,-27.33 63.66,-38.46 87.27,-47.13"/>
<polygon fill="black" stroke="black" points="86.3,-50.5 96.89,-50.66 88.71,-43.93 86.3,-50.5"/>
</g>
</g>
</svg>
