<?xml version="1.0" encoding="UTF-8" standalone="no"?>
<!DOCTYPE svg PUBLIC "-//W3C//DTD SVG 1.1//EN"
 "http://www.w3.org/Graphics/SVG/1.1/DTD/svg11.dtd">
<!-- Generated by graphviz version 2.43.0 (0)
 -->
<!-- Title: G Pages: 1 -->
<svg width="277pt" height="132pt"
 viewBox="0.00 0.00 277.29 131.90" xmlns="http://www.w3.org/2000/svg" xmlns:xlink="http://www.w3.org/1999/xlink">
<g id="graph0" class="graph" transform="scale(1 1) rotate(0) translate(4 127.9)">
<title>G</title>
<polygon fill="white" stroke="transparent" points="-4,4 -4,-127.9 273.29,-127.9 273.29,4 -4,4"/>
<!-- s3 -->
<g id="node1" class="node">
<title>s3</title>
<ellipse fill="none" stroke="black" cx="66.05" cy="-98.45" rx="21.4" ry="21.4"/>
<ellipse fill="none" stroke="black" cx="66.05" cy="-98.45" rx="25.4" ry="25.4"/>
<text text-anchor="middle" x="66.05" y="-94.75" font-family="Times,serif" font-size="14.00">s3</text>
</g>
<!-- s1 -->
<g id="node3" class="node">
<title>s1</title>
<ellipse fill="none" stroke="black" cx="158.94" cy="-21.45" rx="21.4" ry="21.4"/>
<text text-anchor="middle" x="158.94" y="-17.75" font-family="Times,serif" font-size="14.00">s1</text>
</g>
<!-- s3&#45;&gt;s1 -->
<g id="edge5" class="edge">
<title>s3&#45;&gt;s1</title>
<path fill="none" stroke="black" d="M85.88,-82.49C99.92,-70.6 119.19,-54.27 134.28,-41.5"/>
<polygon fill="black" stroke="black" points="136.8,-43.95 142.16,-34.82 132.27,-38.61 136.8,-43.95"/>
<text text-anchor="middle" x="114.5" y="-66.25" font-family="Times,serif" font-size="14.00">λ</text>
</g>
<!-- s0 -->
<g id="node2" class="node">
<title>s0</title>
<ellipse fill="none" stroke="black" cx="66.05" cy="-21.45" rx="21.4" ry="21.4"/>
<text text-anchor="middle" x="66.05" y="-17.75" font-family="Times,serif" font-size="14.00">s0</text>
</g>
<!-- s0&#45;&gt;s1 -->
<g id="edge1" class="edge">
<title>s0&#45;&gt;s1</title>
<path fill="none" stroke="black" d="M87.67,-21.45C99.3,-21.45 114.04,-21.45 127.02,-21.45"/>
<polygon fill="black" stroke="black" points="127.4,-24.95 137.4,-21.45 127.4,-17.95 127.4,-24.95"/>
<text text-anchor="middle" x="114.5" y="-25.25" font-family="Times,serif" font-size="14.00">a</text>
</g>
<!-- s1&#45;&gt;s1 -->
<g id="edge3" class="edge">
<title>s1&#45;&gt;s1</title>
<path fill="none" stroke="black" d="M150.94,-41.74C149.83,-51.87 152.5,-60.9 158.94,-60.9 163.07,-60.9 165.65,-57.19 166.68,-51.87"/>
<polygon fill="black" stroke="black" points="170.18,-51.83 166.95,-41.74 163.19,-51.65 170.18,-51.83"/>
<text text-anchor="middle" x="158.94" y="-64.7" font-family="Times,serif" font-size="14.00">λ</text>
</g>
<!-- s2 -->
<g id="node4" class="node">
<title>s2</title>
<ellipse fill="none" stroke="black" cx="247.84" cy="-66.45" rx="21.4" ry="21.4"/>
<text text-anchor="middle" x="247.84" y="-62.75" font-family="Times,serif" font-size="14.00">s2</text>
</g>
<!-- s1&#45;&gt;s2 -->
<g id="edge2" class="edge">
<title>s1&#45;&gt;s2</title>
<path fill="none" stroke="black" d="M178.37,-30.99C190.24,-37.14 205.88,-45.24 219.22,-52.14"/>
<polygon fill="black" stroke="black" points="217.95,-55.43 228.44,-56.92 221.17,-49.21 217.95,-55.43"/>
<text text-anchor="middle" x="203.39" y="-49.25" font-family="Times,serif" font-size="14.00">b</text>
</g>
<!-- s2&#45;&gt;s3 -->
<g id="edge4" class="edge">
<title>s2&#45;&gt;s3</title>
<path fill="none" stroke="black" d="M227.24,-72.54C214.1,-76.43 196.34,-81.32 180.39,-84.45 154.19,-89.59 124.19,-93.19 101.64,-95.46"/>
<polygon fill="black" stroke="black" points="101.14,-91.99 91.53,-96.43 101.82,-98.96 101.14,-91.99"/>
<text text-anchor="middle" x="158.94" y="-94.25" font-family="Times,serif" font-size="14.00">c</text>
</g>
<!-- s&#45;s0 -->
<g id="node5" class="node">
<title>s&#45;s0</title>
<ellipse fill="black" stroke="black" cx="1.8" cy="-21.45" rx="1.8" ry="1.8"/>
</g>
<!-- s&#45;s0&#45;&gt;s0 -->
<g id="edge6" class="edge">
<title>s&#45;s0&#45;&gt;s0</title>
<path fill="none" stroke="black" d="M3.88,-21.45C7.68,-21.45 20.89,-21.45 34.06,-21.45"/>
<polygon fill="black" stroke="black" points="34.44,-24.95 44.44,-21.45 34.44,-17.95 34.44,-24.95"/>
</g>
</g>
</svg>
