<?xml version="1.0" encoding="UTF-8" standalone="no"?>
<!DOCTYPE svg PUBLIC "-//W3C//DTD SVG 1.1//EN"
 "http://www.w3.org/Graphics/SVG/1.1/DTD/svg11.dtd">
<!-- Generated by graphviz version 2.43.0 (0)
 -->
<!-- Title: %3 Pages: 1 -->
<svg width="162pt" height="44pt"
 viewBox="0.00 0.00 162.34 44.00" xmlns="http://www.w3.org/2000/svg" xmlns:xlink="http://www.w3.org/1999/xlink">
<g id="graph0" class="graph" transform="scale(1 1) rotate(0) translate(4 40)">
<title>%3</title>
<polygon fill="white" stroke="transparent" points="-4,4 -4,-40 158.34,-40 158.34,4 -4,4"/>
<!-- ini -->
<g id="node1" class="node">
<title>ini</title>
<polygon fill="none" stroke="black" points="32.17,-36 -0.17,-18 32.17,0 64.51,-18 32.17,-36"/>
<polyline fill="none" stroke="black" points="10.31,-23.84 10.31,-12.16 "/>
<polyline fill="none" stroke="black" points="21.69,-5.84 42.66,-5.84 "/>
<polyline fill="none" stroke="black" points="54.03,-12.16 54.03,-23.84 "/>
<polyline fill="none" stroke="black" points="42.66,-30.16 21.69,-30.16 "/>
<text text-anchor="middle" x="32.17" y="-14.3" font-family="Times,serif" font-size="14.00">ini</text>
</g>
<g id="node2" class="node">
<title></title>
<ellipse fill="none" stroke="black" cx="127.34" cy="-18" rx="27" ry="18"/>
</g>
<!-- ini&#45;&gt; -->
<g id="edge1" class="edge">
<title>ini&#45;&gt;</title>
<path fill="none" stroke="black" d="M64.45,-18C72.72,-18 81.71,-18 90.22,-18"/>
<polygon fill="black" stroke="black" points="90.26,-21.5 100.26,-18 90.26,-14.5 90.26,-21.5"/>
</g>
</g>
</svg>
